<svg xmlns="http://www.w3.org/2000/svg" viewBox="0 0 203.42 221.47"><path d="M37.2 166.06H18.74v-1.19V60.68a67 67 0 00-4.42-25.18C11.17 27.56 6.74 20.5.2 14.85a1.44 1.44 0 01-.2-.27C3.85 9.87 7.71 5.09 11.59.3c8.23 6.87 14.08 15.39 18.55 25.09l.59-.82A89.69 89.69 0 0144.56 7.94a50.05 50.05 0 016.71-5.16c6.22-4 12.59-3.63 18.6.66a63.17 63.17 0 0112.82 12.79 115.26 115.26 0 0115.86 26.08 38.15 38.15 0 013.29 15.37c-.1 21.26 0 42.52 0 63.77a34.8 34.8 0 007.11 21.74 33.12 33.12 0 0010.6 9 7.23 7.23 0 00.68.3v-1.18c.06-6.68-.12-13.37.23-20a43 43 0 018.32-23.77 36.51 36.51 0 0121.88-14.16 50.81 50.81 0 0117.52-.66 43.46 43.46 0 0115.77 4.83 33.72 33.72 0 0115 15.73 44.6 44.6 0 012.64 31.83c-3.14 11-10.11 19.1-20.09 24.6a45.83 45.83 0 01-22.39 5.61h-21.87a.88.88 0 00-1 .74c-7.41 22.74-22.92 37-45.77 43.45a57.11 57.11 0 01-15.51 2H55.73v-18.49h1c6 0 12 .14 18 0q27.18-.76 40.73-24.41a50.19 50.19 0 002.16-4.78c.27-.61.45-1.26.69-1.94-1.24-.52-2.44-1-3.6-1.52-16.25-7.53-26.27-20.09-30.21-37.52a51.11 51.11 0 01-1.12-11.18V57.99a21.05 21.05 0 00-1.79-8.39 92.46 92.46 0 00-9.83-17.17 70.3 70.3 0 00-10.6-12.37c-1.28-1.13-1-1.16-2.38 0a61 61 0 00-10.52 11.7 74.58 74.58 0 00-9.12 16.01 26.64 26.64 0 00-2 10.23c.09 15.56 0 31.13.06 46.7v61.36zm101.52-9.19h20.6a27.76 27.76 0 0011.79-2.56c6.36-3 10.91-7.65 12.84-14.49a27 27 0 00-.91-16.93 16.53 16.53 0 00-10.09-10.12 32.37 32.37 0 00-17.24-1.56 18.53 18.53 0 00-14.31 11.09 32 32 0 00-2.7 13.72v19.84z"/></svg>