<svg xmlns="http://www.w3.org/2000/svg" viewBox="0 0 263.87 220.74"><path d="M263.87 147.16H159.81c0-.57-.07-1.07-.07-1.57v-19.83a2.4 2.4 0 011.24-2.31c9.24-6.21 16.84-13.92 21.24-24.31 7.73-18.26 5.66-42.22-12.38-59.24-9.16-8.65-19.79-14-32.39-15.09-17-1.42-31.71 3.69-43.82 15.91-8.27 8.34-13.78 18.11-15.23 29.87-2.39 19.36 3.6 35.58 18.64 48.24 2.08 1.75 4.37 3.26 6.52 4.93a2 2 0 01.81 1.33c.05 7.28 0 14.56 0 22H.11v-24.5h73.07c-.85-.91-1.42-1.51-2-2.13-7.83-8.48-13.75-18.08-16.26-29.44a68.37 68.37 0 018.29-51.28c9.93-16.65 24-28.67 42.38-35.32A78.93 78.93 0 01138.26.26a73.07 73.07 0 0135.64 11.6c14.79 9.68 26.33 22.24 32.53 39 5.26 14.25 6.29 28.83 2 43.55-2.89 9.83-8.24 18.27-15.12 25.78l-1.6 1.7a5.15 5.15 0 00-.39.57c.57 0 1 .1 1.43.1h69.85c.42 0 .85-.08 1.27-.12zM0 220.74v-24.37c.56 0 1-.07 1.48-.07h262.39v24.44z"/></svg>