<svg xmlns="http://www.w3.org/2000/svg" viewBox="0 0 192.43 246.24"><path d="M22.62 246.23L0 223.95c23.11-23.26 37.24-51.23 41.34-84.78H.65V107.5h40.73c-4-33.81-18-61.83-41.19-85.25L22.94.04c29.08 29.05 46.05 64.84 50.55 107.23h11.07c8.81 0 17.63-.15 26.45.08 3.53.09 4.66-1 5.09-4.58 4.71-39.6 21.27-73.56 49.18-102a8.17 8.17 0 01.9-.73l22.65 22.12c-23.19 23.26-37.27 51.42-41.38 85.17h44.94v31.71h-44.9c4.17 33.56 18.18 61.57 41.36 84.84l-22.55 22.36q-44.12-44.14-50.83-106.9h-42c-4.55 41.7-21.44 77.48-50.85 106.89z"/></svg>