<svg xmlns="http://www.w3.org/2000/svg" viewBox="0 0 246.33 219.86"><path d="M168.46 219.86c-4.9-2.64-10-5-14.68-8-10.28-6.48-14.58-16.88-17.7-28-4.84-17.23-6.8-34.89-8.12-52.65-2.38-32-1.19-64-.6-96 .05-2.92-1-3.8-3.6-4.63-8.41-2.64-16.72-4.12-25.35-1-2.36.86-3.4 1.93-3.39 4.6.22 40.27.31 80.55.53 120.82a8.47 8.47 0 001.74 4.65c2.75 3.64 5.79 7.07 9 10.94-9.16 4.75-15 12-18.08 22.15-6.27-4.91-12.08-9.42-17.86-14-6.92-5.46-7.11-5.58-3-13.2a33.41 33.41 0 003.91-16.58c-.23-37.84-.16-75.68-.19-113.52v-5.17c-10.42-1.7-20.57-3.7-29.55 3.57a7.3 7.3 0 00-2.46 5q0 59.61.44 119.2a10.28 10.28 0 001.26 4.53c2.21 4.15 4.63 8.19 7.22 12.7-8.37 4.61-13.42 12-17.82 20.42-1-.73-1.81-1.27-2.54-2-5.37-4.93-10.67-10-16.12-14.81-1.74-1.56-2.63-2.89-1.17-5.11 6.16-9.34 6.62-19.75 6.53-30.59-.3-34.86-.05-69.73 0-104.6v-4.73L0 30.45 14.86 5.29c8.18 4.28 17.33 7.1 27.51 6.07l-2.05 11.4.83.53a44.07 44.07 0 004.04-4.72c3.09-4.74 5.93-9.65 9-14.38.66-1 2.29-2.3 3.13-2.09a87.87 87.87 0 0033.87 1.67v14.4l.94.24L104.39 0c8.27 1.37 16.28 3.24 24.4 3.91s16.39.14 24.91.14c-.52 5.06-1.42 10.62-1.6 16.19-.76 23.89-1.93 47.78-1.74 71.66.13 16.56 1.84 33.15 3.58 49.65 1.61 15.27 4.22 30.45 10.46 44.67a46.3 46.3 0 006.17 10.35c5.54 6.86 12.46 8.1 19.61 2.85a72 72 0 0013.8-13.49c4.73-6 8.48-12.79 12.61-19.27a5.64 5.64 0 00.87-3.58l-26.91 16.89c-.4-3-.31-5.61-1.15-7.91-2.57-7.05 1-10.49 6.51-14.14 17-11.22 33.64-23 50.41-34.57v65.69l-15.13 8.7v-29.45a14.16 14.16 0 00-3.78 4.49c-8.45 13.79-16.85 27.69-29.86 37.79-4.85 3.77-10.71 6.24-16.11 9.31z"/></svg>