<svg xmlns="http://www.w3.org/2000/svg" viewBox="0 0 237.77 258.56"><path d="M178.98 86.03a22.38 22.38 0 017.58-5.43c4.36-1.76 8.67-1.34 12.91.4a33.81 33.81 0 0113 10.11c6.05 7.25 9.9 15.63 12.47 24.65a86.72 86.72 0 013.17 18.22 138.38 138.38 0 01-5.43 49.47 94.36 94.36 0 01-16.38 31.88c-.14.18-.27.37-.46.63a205.26 205.26 0 0032 26l-10.88 16.57a225 225 0 01-35.39-28.81c-18.37 13.55-39.42 18-61.85 18.23-.16-6.62-.33-13.18-.49-19.84 13.06-.07 25.72-1.73 37.72-6.92a62.85 62.85 0 0011.44-6.45c-.24-.35-.45-.67-.68-1a102.44 102.44 0 01-13.42-23.17 65.18 65.18 0 01-4.66-18.16c-.26-2.63-.4-5.28-.4-7.92v-98.9a22.52 22.52 0 00-2-8.63 111.88 111.88 0 00-20.87-33.1c-.91-1-1.95-1.88-2.94-2.81-.21-.2-.46-.36-.89-.69-1.64 1.72-3.39 3.33-4.88 5.16a92.66 92.66 0 00-16.13 29 35.31 35.31 0 00-2 11.36q.06 65.53 0 131.05v1.32H89.76v-1.21-130a29.85 29.85 0 00-1.72-10.29 109.37 109.37 0 00-18.33-32.77c-.86-1.05-1.87-2-2.78-3a.77.77 0 00-1.31 0c-2.58 2.59-5.36 5-7.72 7.81a94.29 94.29 0 00-14.13 22.5 39.65 39.65 0 00-3.48 11.43 26.55 26.55 0 00-.15 2.67c0 1.46.05 2.91.05 4.36v128.58H20.36V70.01a86.54 86.54 0 00-4.74-29.59 64.39 64.39 0 00-12.3-21.33c-1-1.13-2.15-2.13-3.32-3.27l13-15a66.27 66.27 0 0111.56 13.4 87.52 87.52 0 018.22 15.56c.24-.35.43-.6.6-.87A106.72 106.72 0 0149.29 8.96a35.83 35.83 0 0111-7.66A16 16 0 0175.1 2.44a36.46 36.46 0 018.82 7.6A116.11 116.11 0 0198.78 32.1l.45.82.84-1.54a100.73 100.73 0 0115.61-22.16 33 33 0 0110.41-7.79 16.1 16.1 0 0115 .88 37.67 37.67 0 019.21 7.45 130.52 130.52 0 0125.42 40 40.89 40.89 0 013.32 16.59c-.16 6.11 0 12.23 0 18.35zm14.11 13.93c-.84 1.17-1.7 2.26-2.43 3.42a81.36 81.36 0 00-8.75 19.78 55.65 55.65 0 00-2.92 16.22v26.09a43.75 43.75 0 001.48 11.27 68 68 0 009.4 20c.84 1.28 1.74 2.53 2.72 4 1.3-2.05 2.55-3.91 3.68-5.85 5.61-9.66 8.82-20.16 10.66-31.12a133 133 0 001.7-19.73 81.89 81.89 0 00-1.71-18.62 52.14 52.14 0 00-8-19.37 22.81 22.81 0 00-5.83-6.09z"/></svg>