<svg xmlns="http://www.w3.org/2000/svg" viewBox="0 0 258.03 172.61"><path d="M233.15 0l24.88 58.3c-5.35 2.37-10.52 4.64-15.85 7l-16.79-39.84-60.92 39.81-16.94-39.81-60.25 39.81c-5.66-13.33-11.2-26.42-16.88-39.81C50.05 38.78 29.92 51.96 9.54 65.3l-9.41-14L77.95.01c5.75 13.31 11.41 26.43 17.18 39.82L155.67.02c5.67 13.34 11.27 26.49 16.94 39.81zM9.38 172.62l-9.38-14 77.81-51.27 17.18 39.82 60.53-39.81c5.67 13.32 11.26 26.45 16.94 39.81L233 107.35l24.89 58.29-15.85 7c-5.57-13.29-11.09-26.41-16.76-39.86l-60.82 39.82-16.93-39.82-60.25 39.81-17-39.81z"/></svg>