<svg data-name="Layer 1" xmlns="http://www.w3.org/2000/svg" viewBox="0 0 400.31 400.61"><path d="M208.99 400.61h-18.51c-2.27-17.3-4.45-34.6-6.83-51.86-10-72.47-20.27-144.93-39.1-215.76a275.47 275.47 0 00-19.3-52.23c-12.15-24.3-41.05-36.7-65-31.14-33.37 7.72-39 47.59-23.87 69.56 7.74 11.26 18.59 18.54 31.19 22.88 6 2.09 8.8 4.71 7.88 11.19-.53 3.77-.1 7.67-.1 11.57-36.32-3.56-68.84-30-74.1-67.79-3.54-25.5.28-49.54 16.74-70.47C39.73-1.06 73.61-5.97 102.73 6.44c35.62 15.19 55.45 44.6 64 80.77 8.3 35.07 13.58 70.87 19.53 106.45 3.07 18.37 4.8 37 7 55.47s4.1 36.88 7.15 55.4c1.8-15.71 3.53-31.42 5.43-47.12 6.91-57.08 12.71-114.38 27.57-170.14 8.11-30.44 23.14-56.76 50.7-73.87 51.72-32.13 109.7-3 115.57 54.68 2.82 27.76-2.86 52.64-23 73-13.8 13.95-31 20.86-51.27 24.38 0-6.52-.39-12.62.27-18.61.17-1.54 3.5-3.17 5.67-4 12.95-4.93 24.33-11.89 32.45-23.49 18.95-27 4.29-65.65-26.79-70.47-27.24-4.22-54.9 12.64-66.37 40.19-15.67 37.62-24.71 77.12-31.39 117-10.68 63.74-19.71 127.75-29.45 191.65-.2.88-.51 1.73-.81 2.88z"/></svg>