<svg xmlns="http://www.w3.org/2000/svg" viewBox="0 0 214.71 213.04"><path d="M214.71 98.3h-9.51c-1.24-4.55-2.36-9.15-3.73-13.68-11.1-36.55-39.1-59.51-77.17-63.53-18.58-2-36.69-1-53.87 7.11A61.37 61.37 0 0059.37 35c5.67 0 11.39-.45 17 .09 18.7 1.78 33.66 14.87 36.19 31.19 3.06 19.81-5.62 36.4-24.47 44-19.59 7.91-39.42 7.79-57.8-3.64-15-9.3-20.69-24-20.15-41.15.55-17.67 8.73-31.57 22.19-42.53 21-17.06 45.6-22.91 72-22.93 20.93 0 41.23 3.36 59.86 13.56 22.66 12.41 38.05 30.93 45 55.86 2.57 9.21 3.65 18.86 5.52 28.85zM29.81 75.14a53.45 53.45 0 001 6.49 29.68 29.68 0 0030.08 21.47c13.24-.71 24.15-8 27.84-18.59 5.59-16-3.58-32.21-20.75-36.65-19.08-4.93-38.02 8.65-38.17 27.28z"/><path d="M155.62 177.57c-6.95 0-14.06.94-20.83-.19-18.53-3.09-30.86-15.65-33.17-32.51-2.42-17.72 6.25-33.62 23.69-41.56s35.61-8.3 53-.31c18.37 8.43 26.47 24 26.1 43.91-.33 18-8.61 32.1-22.21 43.28-17.48 14.36-38 20.82-60.25 22.38-24.94 1.75-49.2-1.06-71.63-13-22.83-12.2-38.07-30.86-44.93-55.85-2.54-9.24-3.61-18.89-5.42-28.75H8.9c2.24 7.19 4 14.57 6.8 21.54 13.42 33.42 38.8 51.11 74.07 55.38 16.59 2 33 1.62 48.85-4.52 6-2.32 11.6-5.52 17.38-8.32zm-2.72-10.73c4.05-.73 8.22-1.07 12.13-2.27 17.56-5.38 25.24-26.14 15-41.3-7.4-11-18.3-14.8-31.28-13.1-15.23 2-26.41 17.06-24.15 32.23 1.77 11.6 13.51 23.65 28.3 24.44z"/></svg>