<svg xmlns="http://www.w3.org/2000/svg" viewBox="0 0 187.45 238.46"><path d="M58.28 97.96c-1.52-3.27-3.07-6.42-4.46-9.63a69.4 69.4 0 01-5.53-20.17 59.14 59.14 0 014.18-29.08c5.73-14 15-24.85 28.51-31.9 10.13-5.32 21-8 32.43-7 20.5 1.77 37 10.8 48.47 28.07a59.51 59.51 0 019.76 27.55 84.6 84.6 0 01-1.73 25.85c-1.95 9.29-5.16 18.18-8.47 27.05-5.39 14.47-12 28.39-18.56 42.32-4.57 9.7-9.07 19.43-12.91 29.45a43.29 43.29 0 00-2.63 22.43 25.63 25.63 0 004.78 11.81c4.23 5.55 9.95 7.85 16.8 7.57 5.68-.23 10.83-2.21 15.73-4.94a55.31 55.31 0 0010.87-8l.7-.64 11.23 11.65c-1.65 1.43-3.22 2.89-4.89 4.23a62.86 62.86 0 01-23.13 12.28c-8.17 2.22-16.33 2.31-24.37-.63-8.81-3.23-15.14-9.28-19.38-17.56-3.92-7.63-5.18-15.83-4.87-24.34s2.73-16.49 5.95-24.31c5.21-12.62 11.12-24.91 16.93-37.25a394.19 394.19 0 0016.85-41.28 101.06 101.06 0 004.89-20.79c1.06-9.12.49-18-3.29-26.58-6.94-15.63-19.15-24.41-35.75-27.35-7.86-1.4-15.47-.3-23 2.46-15.41 5.66-26.21 20.3-28.76 35.65-1.45 8.75 0 17.08 3.18 25.21 2.67 6.82 6.28 13.15 9.85 19.52a197.61 197.61 0 019.48 18.35 68.74 68.74 0 015.63 19.31c2.2 19-4.51 34.13-20.11 45.21a44.42 44.42 0 01-20.92 7.87 47.74 47.74 0 01-13.83-.7c-18.1-3.25-32.39-18.09-36.63-35.62a47.18 47.18 0 0149-57.35c2.45.17 4.87.74 7.3 1.14.22.03.44.09.7.14zm18.86 45.75c-.18-1.84-.33-3.69-.57-5.52a22.41 22.41 0 00-.68-3.47c-4.89-16.73-22.33-25.8-37.94-20.59-11.35 3.78-20.86 12.93-21.82 28a29.13 29.13 0 004.46 17.1c6.81 11.3 18.15 16.66 30.72 14.88 13.15-1.87 26.43-14.39 25.83-30.4z"/></svg>