<svg xmlns="http://www.w3.org/2000/svg" viewBox="0 0 201.09 200.88"><path d="M69.52 143.48l-51.59 51.71c-6.38 6.39-10.93 7.33-15.22 3.19s-3.48-9 3.17-15.63q23.5-23.52 47.06-47c1.39-1.39 3.32-2.23 5.36-3.56-13.12-13.06-25-24.88-36.84-36.7-.76-.76-1.58-1.48-2.29-2.28-3.54-4-3.51-9.25 0-12.59s8.69-3.17 12.58.68Q48.48 97.84 65 114.57a52.54 52.54 0 013.49 4.24c34.11-34.05 67.58-67.53 101.3-101.25-1.35-.1-2.84-.32-4.33-.32l-59.47.09c-5.8 0-9.58-3.49-9.44-8.69.14-5 3.89-8.29 9.37-8.31Q147.01.18 188.08 0c10.54 0 13 2.47 13 13q-.11 41.1-.2 82.18c0 5.87-3.44 9.6-8.65 9.52s-8.47-4-8.47-9.8V31.99L83.08 132.69c7.32 7.29 15.74 15.67 24.15 24.06 3.57 3.56 7.16 7.1 10.69 10.71 4.76 4.86 5.22 9.93 1.34 13.72s-8.86 3.24-13.71-1.6c-11.86-11.83-23.67-23.71-36.03-36.1z"/></svg>