<svg xmlns="http://www.w3.org/2000/svg" viewBox="0 0 208.02 226.72"><path d="M66.51 85.58a44.38 44.38 0 01-12.59-12 64.46 64.46 0 01-7.5-14.34c-2.31-6-4.47-12.14-6.8-18.18a38.22 38.22 0 00-6.56-11.32c-4.07-4.75-9.41-7.33-15.31-8.85a68.46 68.46 0 00-15-1.88H-.01L.29.12H2.9a85.59 85.59 0 0120.7 2.8c9.34 2.59 17.48 7.16 23.85 14.59a58 58 0 019.89 16.95c2.47 6.35 4.73 12.79 7.19 19.14a38.1 38.1 0 006.56 11.28c4.08 4.74 9.42 7.34 15.36 8.84A75.81 75.81 0 00108 75.54a63.36 63.36 0 0014.17-2c5.74-1.56 10.86-4.15 14.79-8.75a38.21 38.21 0 006.5-11.2c2.09-5.39 4-10.85 6-16.26a68.82 68.82 0 019.29-17.61 45.21 45.21 0 0120.43-15.1A68.64 68.64 0 01198.95.47c2.85-.21 5.71-.31 8.72-.47.11 6.37.21 12.61.32 18.92-2.07.08-4.07.13-6.07.25a56.42 56.42 0 00-15.69 3 27.5 27.5 0 00-15.17 13.17c-2.84 5.15-4.64 10.72-6.64 16.21a127.83 127.83 0 01-6 14.82c-4 7.8-9.29 14.41-16.72 19.12 25.27 16.13 38.66 38.9 37.67 69.13-.68 21-9.34 38.72-25 52.76a75.41 75.41 0 01-108.61-8.06 74.22 74.22 0 01-14.84-29.08 75.54 75.54 0 0111.4-62.65 76 76 0 0124.19-22.01zm37.44 122.23a56.65 56.65 0 10-56.59-56.75 56.67 56.67 0 0056.59 56.75z"/></svg>